<svg id="Слой_2" data-name="Слой 2" xmlns="http://www.w3.org/2000/svg" viewBox="0 0 163.44 216.74"><defs><style>.cls-1,.cls-2{fill:#fff;stroke:#000;}.cls-1{stroke-miterlimit:10;stroke-width:0.97px;}.cls-2{stroke-linejoin:round;stroke-width:0.97px;}</style></defs><title>okno</title><polygon class="cls-1" points="149.19 16.63 149.19 16.69 91.29 26.9 91.29 26.95 81.85 26.95 81.85 26.38 144.22 15.39 149.19 16.63"/><polygon class="cls-1" points="91.31 26.95 91.31 216.11 91.08 216.16 81.85 212.62 81.85 26.95 91.31 26.95"/><polygon class="cls-1" points="149.19 16.69 149.19 24.89 91.31 35.1 91.31 26.95 91.29 26.95 91.29 26.9 149.19 16.69"/><polygon class="cls-1" points="162.95 0.48 162.95 216.25 91.31 216.25 91.31 216.11 149.19 203.25 149.19 13.95 14.52 13.95 14.52 203.25 81.85 203.25 81.85 212.62 91.08 216.16 90.66 216.25 0.48 216.25 0.48 0.48 162.95 0.48"/><rect class="cls-1" x="72.4" y="13.95" width="9.45" height="189.3"/><polygon class="cls-1" points="149.19 196.47 149.19 203.25 91.31 216.11 91.31 207.87 114.77 203.25 149.19 196.47"/><polygon class="cls-2" points="149.19 196.47 114.77 203.25 91.31 207.87 91.31 204.7 98.72 203.25 144.52 194.29 149.19 196.47"/><g id="Слой_3" data-name="Слой 3"><ellipse class="cls-2" cx="87.99" cy="114.7" rx="3.16" ry="9.05"/><path class="cls-2" d="M113,121.24c.87-2.17,4.38-2.44,11.21-2.87,5.09-.32,8.75-.52,9.48,1.15a2.89,2.89,0,0,1-.86,2.87c-1.77,1.82-4.34.11-8.91.58-5.53.56-7.75,3.69-9.77,2.3A3.66,3.66,0,0,1,113,121.24Z" transform="translate(-26.41 -8.13)"/></g></svg>