<svg id="Слой_2" data-name="Слой 2" xmlns="http://www.w3.org/2000/svg" viewBox="0 0 99.59 99.59">
<defs><style>.cls-1{fill:none;}.cls-1,.cls-2,.cls-3{stroke:#000;stroke-miterlimit:10;}.cls-1,.cls-2{stroke-width:0px;}.cls-2,.cls-3{fill:#fff;}.cls-3{stroke-width:0px;}</style></defs><title>siteassets-plusinacircleWHITE</title><path class="cls-1" d="M53.67,9.84h0c-1.2-.11-2.42-.17-3.65-.17A40.32,40.32,0,0,0,9.67,50c0,1.21.05,2.41.16,3.59v0A40.32,40.32,0,0,0,50,90.33c1.23,0,2.45-.06,3.65-.17h0a40.32,40.32,0,0,0,36.5-36.55v0c.11-1.18.16-2.38.16-3.59A40.32,40.32,0,0,0,53.67,9.84Zm30.8,46.93H56.8V84.33A3.71,3.71,0,0,1,53.48,88l-.38,0H46.9a3.7,3.7,0,0,1-3.7-3.7V56.77H15.53a3.72,3.72,0,0,1-3.71-3.34c0-.12,0-.25,0-.38V47a3.72,3.72,0,0,1,3.73-3.72H43.2V15.67A3.7,3.7,0,0,1,46.9,12h6.2l.38,0a3.71,3.71,0,0,1,3.32,3.68V43.23H84.47A3.72,3.72,0,0,1,88.2,47v6.1c0,.13,0,.26,0,.38A3.72,3.72,0,0,1,84.47,56.77Z" transform="translate(-0.2 -0.2)"/><path class="cls-2" d="M50,.89A49.11,49.11,0,1,0,99.11,50,49.11,49.11,0,0,0,50,.89ZM90.17,53.61a40.32,40.32,0,0,1-36.5,36.55h0c-1.2.11-2.42.17-3.65.17A40.32,40.32,0,0,1,9.83,53.61v0c-.11-1.18-.16-2.38-.16-3.59A40.32,40.32,0,0,1,50,9.67c1.23,0,2.45.06,3.65.17h0A40.32,40.32,0,0,1,90.33,50c0,1.21,0,2.41-.16,3.59Z" transform="translate(-0.2 -0.2)"/><path class="cls-3" d="M88.2,47v6.1c0,.13,0,.26,0,.38a3.72,3.72,0,0,1-3.71,3.34H56.8V84.33A3.71,3.71,0,0,1,53.48,88l-.38,0H46.9a3.7,3.7,0,0,1-3.7-3.7V56.77H15.53a3.72,3.72,0,0,1-3.71-3.34c0-.12,0-.25,0-.38V47a3.72,3.72,0,0,1,3.73-3.72H43.2V15.67A3.7,3.7,0,0,1,46.9,12h6.2l.38,0a3.71,3.71,0,0,1,3.32,3.68V43.23H84.47A3.72,3.72,0,0,1,88.2,47Z" transform="translate(-0.2 -0.2)"/></svg>